<svg height="480pt" viewBox="-16 0 480 480" width="480pt" xmlns="http://www.w3.org/2000/svg" xmlns:xlink="http://www.w3.org/1999/xlink"><linearGradient id="a"><stop offset="0" stop-color="#4761ac"/><stop offset="1" stop-color="#54c2ef"/></linearGradient><linearGradient id="b" gradientUnits="userSpaceOnUse" x1="-32" x2="459.2" xlink:href="#a" y1="240" y2="240"/><linearGradient id="c" gradientUnits="userSpaceOnUse" x1="-32" x2="459.2" xlink:href="#a" y1="168" y2="168"/><linearGradient id="d" gradientUnits="userSpaceOnUse" x1="-32" x2="459.2" xlink:href="#a" y1="83.992" y2="83.992"/><linearGradient id="e" gradientUnits="userSpaceOnUse" x1="-32" x2="459.2" xlink:href="#a" y1="328" y2="328"/><linearGradient id="f" gradientUnits="userSpaceOnUse" x1="-32" x2="459.2" xlink:href="#a" y1="312" y2="312"/><linearGradient id="g" gradientUnits="userSpaceOnUse" x1="-32" x2="459.2" xlink:href="#a" y1="396.008" y2="396.008"/><linearGradient id="h" gradientUnits="userSpaceOnUse" x1="-32" x2="459.2" xlink:href="#a" y1="408" y2="408"/><linearGradient id="i" gradientUnits="userSpaceOnUse" x1="-32" x2="459.2" xlink:href="#a" y1="432" y2="432"/><linearGradient id="j" gradientUnits="userSpaceOnUse" x1="-32" x2="459.2" xlink:href="#a" y1="48" y2="48"/><linearGradient id="k" gradientUnits="userSpaceOnUse" x1="-32" x2="459.2" xlink:href="#a" y1="72" y2="72"/><path d="m108 480c59.621094-.066406 107.933594-48.378906 108-108v-264c0-59.648438-48.351562-108-108-108s-108 48.351562-108 108v264c.0664062 59.621094 48.378906 107.933594 108 108zm-92-372c0-50.808594 41.191406-92 92-92s92 41.191406 92 92v124h-184zm0 140h184v124c0 50.808594-41.191406 92-92 92s-92-41.191406-92-92zm0 0" fill="url(#b)"/><path d="m40 120c-4.417969 0-8 3.582031-8 8v80c0 4.417969 3.582031 8 8 8s8-3.582031 8-8v-80c0-4.417969-3.582031-8-8-8zm0 0" fill="url(#c)"/><path d="m408 120c-4.417969 0-8 3.582031-8 8v80c0 4.417969 3.582031 8 8 8s8-3.582031 8-8v-80c0-4.417969-3.582031-8-8-8zm0 0" fill="url(#c)"/><path d="m42.34375 66.34375c-6.800781 8.378906-10.457031 18.867188-10.34375 29.65625 0 4.417969 3.582031 8 8 8s8-3.582031 8-8c-.085938-6.574219 1.890625-13.007812 5.65625-18.398438 3.03125-3.140624 2.988281-8.128906-.097656-11.214843-3.085938-3.085938-8.074219-3.128907-11.214844-.097657zm0 0" fill="url(#d)"/><path d="m48 384v-112c0-4.417969-3.582031-8-8-8s-8 3.582031-8 8v112c0 4.417969 3.582031 8 8 8s8-3.582031 8-8zm0 0" fill="url(#e)"/><path d="m340 480c59.621094-.066406 107.933594-48.378906 108-108v-264c0-59.648438-48.351562-108-108-108s-108 48.351562-108 108v264c.066406 59.621094 48.378906 107.933594 108 108zm-92-372c0-50.808594 41.191406-92 92-92s92 41.191406 92 92v124h-184zm0 140h184v124c0 50.808594-41.191406 92-92 92s-92-41.191406-92-92zm0 0" fill="url(#b)"/><path d="m408 360c4.417969 0 8-3.582031 8-8v-80c0-4.417969-3.582031-8-8-8s-8 3.582031-8 8v80c0 4.417969 3.582031 8 8 8zm0 0" fill="url(#f)"/><path d="m400 416c2.121094 0 4.15625-.84375 5.65625-2.34375 6.800781-8.378906 10.457031-18.867188 10.34375-29.65625 0-4.417969-3.582031-8-8-8s-8 3.582031-8 8c.085938 6.574219-1.890625 13.007812-5.65625 18.398438-2.246094 2.292968-2.90625 5.710937-1.671875 8.671874 1.230469 2.964844 4.117187 4.90625 7.328125 4.929688zm0 0" fill="url(#g)"/><path d="m120 416h8c4.417969 0 8-3.582031 8-8s-3.582031-8-8-8h-8c-4.417969 0-8 3.582031-8 8s3.582031 8 8 8zm0 0" fill="url(#h)"/><path d="m80 440h8c4.417969 0 8-3.582031 8-8s-3.582031-8-8-8h-8c-4.417969 0-8 3.582031-8 8s3.582031 8 8 8zm0 0" fill="url(#i)"/><path d="m368 40h-8c-4.417969 0-8 3.582031-8 8s3.582031 8 8 8h8c4.417969 0 8-3.582031 8-8s-3.582031-8-8-8zm0 0" fill="url(#j)"/><path d="m328 64h-8c-4.417969 0-8 3.582031-8 8s3.582031 8 8 8h8c4.417969 0 8-3.582031 8-8s-3.582031-8-8-8zm0 0" fill="url(#k)"/></svg>